# xmcd
#
# Track frame offsets:
#	150
#	12519
#	24336
#	36624
#	49571
#	61110
#	73186
#	84872
#	97476
#	109162
#	120896
#	133293
#	145572
#	157982
#	169353
#	181012
#	193829
#	206957
#
# Disc length: 2937 seconds
#
# Revision: 5
# Processed by: cddbd v1.5.2PL0 Copyright (c) Steve Scherf et al.
# Submitted via: Antz-MP3Processor 1.0.0
#
DISCID=000b7712
DTITLE=Brownie McGhee - Ultimate Jazz Archive, (The) - Set 13
DYEAR=1940
DGENRE=Blues
TTITLE0=Picking My Tomatoes
TTITLE1=I'm Calling Daisy
TTITLE2=Me and My Dog Blues
TTITLE3=Born for Bad Luck
TTITLE4=Step It Up and Go
TTITLE5=Let Me Tell You 'bout My Baby
TTITLE6=Prison Woman Blues
TTITLE7=Be Good to Me
TTITLE8=My Barkin' Bulldog Blues
TTITLE9=Not Guilty Blues
TTITLE10=Coal Miner Blues
TTITLE11=Back Door Stranger
TTITLE12=Step It Up and Go N:2
TTITLE13=Got to Find My Little Woman
TTITLE14=Dealing With the Devil
TTITLE15=I'm A Black Woman's Man
TTITLE16=Woman, I'm Done
TTITLE17=Death of Blind Boy Fuller
EXTD=YEAR: 1940
EXTT0=
EXTT1=
EXTT2=
EXTT3=
EXTT4=
EXTT5=
EXTT6=
EXTT7=
EXTT8=
EXTT9=
EXTT10=
EXTT11=
EXTT12=
EXTT13=
EXTT14=
EXTT15=
EXTT16=
EXTT17=
PLAYORDER=
